<?xml version="1.0" encoding="UTF-8" standalone="no"?>
<!DOCTYPE svg PUBLIC "-//W3C//DTD SVG 1.1//EN"
 "http://www.w3.org/Graphics/SVG/1.1/DTD/svg11.dtd">
<!-- Generated by graphviz version 2.49.1 (20210923.0004)
 -->
<!-- Title: dependency&#45;cruiser output Pages: 1 -->
<svg width="357pt" height="663pt"
 viewBox="0.00 0.00 356.50 663.00" xmlns="http://www.w3.org/2000/svg" xmlns:xlink="http://www.w3.org/1999/xlink">
<g id="graph0" class="graph" transform="scale(1 1) rotate(0) translate(4 659)">
<title>dependency&#45;cruiser output</title>
<polygon fill="white" stroke="transparent" points="-4,4 -4,-659 352.5,-659 352.5,4 -4,4"/>
<g id="clust1" class="cluster">
<title>cluster_apps</title>
<path fill="#ffffff" stroke="black" stroke-width="2" d="M20,-159C20,-159 328.5,-159 328.5,-159 334.5,-159 340.5,-165 340.5,-171 340.5,-171 340.5,-635 340.5,-635 340.5,-641 334.5,-647 328.5,-647 328.5,-647 20,-647 20,-647 14,-647 8,-641 8,-635 8,-635 8,-171 8,-171 8,-165 14,-159 20,-159"/>
<text text-anchor="middle" x="174.25" y="-635.8" font-family="Helvetica,sans-Serif" font-weight="bold" font-size="9.00">apps</text>
</g>
<g id="clust2" class="cluster">
<title>cluster_apps/www&#45;e2e</title>
<path fill="#ffffff" stroke="black" stroke-width="2" d="M32.5,-471C32.5,-471 320.5,-471 320.5,-471 326.5,-471 332.5,-477 332.5,-483 332.5,-483 332.5,-609 332.5,-609 332.5,-615 326.5,-621 320.5,-621 320.5,-621 32.5,-621 32.5,-621 26.5,-621 20.5,-615 20.5,-609 20.5,-609 20.5,-483 20.5,-483 20.5,-477 26.5,-471 32.5,-471"/>
<text text-anchor="middle" x="176.5" y="-609.8" font-family="Helvetica,sans-Serif" font-weight="bold" font-size="9.00">www&#45;e2e</text>
</g>
<g id="clust3" class="cluster">
<title>cluster_apps/www&#45;e2e/src</title>
<path fill="#ffffff" stroke="black" stroke-width="2" d="M40.5,-479C40.5,-479 312.5,-479 312.5,-479 318.5,-479 324.5,-485 324.5,-491 324.5,-491 324.5,-583 324.5,-583 324.5,-589 318.5,-595 312.5,-595 312.5,-595 40.5,-595 40.5,-595 34.5,-595 28.5,-589 28.5,-583 28.5,-583 28.5,-491 28.5,-491 28.5,-485 34.5,-479 40.5,-479"/>
<text text-anchor="middle" x="176.5" y="-583.8" font-family="Helvetica,sans-Serif" font-weight="bold" font-size="9.00">src</text>
</g>
<g id="clust4" class="cluster">
<title>cluster_apps/www&#45;e2e/src/integration</title>
<path fill="#ffffff" stroke="black" stroke-width="2" d="M48.5,-517C48.5,-517 105.5,-517 105.5,-517 111.5,-517 117.5,-523 117.5,-529 117.5,-529 117.5,-557 117.5,-557 117.5,-563 111.5,-569 105.5,-569 105.5,-569 48.5,-569 48.5,-569 42.5,-569 36.5,-563 36.5,-557 36.5,-557 36.5,-529 36.5,-529 36.5,-523 42.5,-517 48.5,-517"/>
<text text-anchor="middle" x="77" y="-557.8" font-family="Helvetica,sans-Serif" font-weight="bold" font-size="9.00">integration</text>
</g>
<g id="clust5" class="cluster">
<title>cluster_apps/www&#45;e2e/src/support</title>
<path fill="#ffffff" stroke="black" stroke-width="2" d="M156.5,-487C156.5,-487 304.5,-487 304.5,-487 310.5,-487 316.5,-493 316.5,-499 316.5,-499 316.5,-557 316.5,-557 316.5,-563 310.5,-569 304.5,-569 304.5,-569 156.5,-569 156.5,-569 150.5,-569 144.5,-563 144.5,-557 144.5,-557 144.5,-499 144.5,-499 144.5,-493 150.5,-487 156.5,-487"/>
<text text-anchor="middle" x="230.5" y="-557.8" font-family="Helvetica,sans-Serif" font-weight="bold" font-size="9.00">support</text>
</g>
<g id="clust6" class="cluster">
<title>cluster_apps/www</title>
<path fill="#ffffff" stroke="black" stroke-width="2" d="M28,-167C28,-167 310.5,-167 310.5,-167 316.5,-167 322.5,-173 322.5,-179 322.5,-179 322.5,-451 322.5,-451 322.5,-457 316.5,-463 310.5,-463 310.5,-463 28,-463 28,-463 22,-463 16,-457 16,-451 16,-451 16,-179 16,-179 16,-173 22,-167 28,-167"/>
<text text-anchor="middle" x="169.25" y="-451.8" font-family="Helvetica,sans-Serif" font-weight="bold" font-size="9.00">www</text>
</g>
<g id="clust7" class="cluster">
<title>cluster_apps/www/src</title>
<path fill="#ffffff" stroke="black" stroke-width="2" d="M36,-321C36,-321 302.5,-321 302.5,-321 308.5,-321 314.5,-327 314.5,-333 314.5,-333 314.5,-425 314.5,-425 314.5,-431 308.5,-437 302.5,-437 302.5,-437 36,-437 36,-437 30,-437 24,-431 24,-425 24,-425 24,-333 24,-333 24,-327 30,-321 36,-321"/>
<text text-anchor="middle" x="169.25" y="-425.8" font-family="Helvetica,sans-Serif" font-weight="bold" font-size="9.00">src</text>
</g>
<g id="clust8" class="cluster">
<title>cluster_apps/www/src/pages</title>
<path fill="#ffffff" stroke="black" stroke-width="2" d="M44,-329C44,-329 294.5,-329 294.5,-329 300.5,-329 306.5,-335 306.5,-341 306.5,-341 306.5,-399 306.5,-399 306.5,-405 300.5,-411 294.5,-411 294.5,-411 44,-411 44,-411 38,-411 32,-405 32,-399 32,-399 32,-341 32,-341 32,-335 38,-329 44,-329"/>
<text text-anchor="middle" x="169.25" y="-399.8" font-family="Helvetica,sans-Serif" font-weight="bold" font-size="9.00">pages</text>
</g>
<g id="clust9" class="cluster">
<title>cluster_node_modules</title>
<path fill="#ffffff" stroke="black" stroke-width="2" d="M235,-9C235,-9 308,-9 308,-9 314,-9 320,-15 320,-21 320,-21 320,-139 320,-139 320,-145 314,-151 308,-151 308,-151 235,-151 235,-151 229,-151 223,-145 223,-139 223,-139 223,-21 223,-21 223,-15 229,-9 235,-9"/>
<text text-anchor="middle" x="271.5" y="-139.8" font-family="Helvetica,sans-Serif" font-weight="bold" font-size="9.00">node_modules</text>
</g>
<!-- .dependency&#45;cruiser.js -->
<g id="node1" class="node">
<title>.dependency&#45;cruiser.js</title>
<g id="a_node1"><a xlink:href=".dependency-cruiser.js" xlink:title=".dependency&#45;cruiser.js">
<path fill="#ccffcc" stroke="black" d="M126,-151C126,-151 28,-151 28,-151 25,-151 22,-148 22,-145 22,-145 22,-139 22,-139 22,-136 25,-133 28,-133 28,-133 126,-133 126,-133 129,-133 132,-136 132,-139 132,-139 132,-145 132,-145 132,-148 129,-151 126,-151"/>
<text text-anchor="middle" x="77" y="-139.8" font-family="Helvetica,sans-Serif" font-size="9.00">.dependency&#45;cruiser.js</text>
</a>
</g>
</g>
<!-- apps/www&#45;e2e/src/integration/app.spec.ts -->
<g id="node2" class="node">
<title>apps/www&#45;e2e/src/integration/app.spec.ts</title>
<g id="a_node2"><a xlink:href="apps/www-e2e/src/integration/app.spec.ts" xlink:title="app.spec.ts">
<path fill="#ddfeff" stroke="black" d="M103.5,-543C103.5,-543 50.5,-543 50.5,-543 47.5,-543 44.5,-540 44.5,-537 44.5,-537 44.5,-531 44.5,-531 44.5,-528 47.5,-525 50.5,-525 50.5,-525 103.5,-525 103.5,-525 106.5,-525 109.5,-528 109.5,-531 109.5,-531 109.5,-537 109.5,-537 109.5,-540 106.5,-543 103.5,-543"/>
<text text-anchor="middle" x="77" y="-531.8" font-family="Helvetica,sans-Serif" font-size="9.00">app.spec.ts</text>
</a>
</g>
</g>
<!-- apps/www&#45;e2e/src/support/app.po.ts -->
<g id="node3" class="node">
<title>apps/www&#45;e2e/src/support/app.po.ts</title>
<g id="a_node3"><a xlink:href="apps/www-e2e/src/support/app.po.ts" xlink:title="app.po.ts">
<path fill="#ddfeff" stroke="black" d="M201.5,-543C201.5,-543 158.5,-543 158.5,-543 155.5,-543 152.5,-540 152.5,-537 152.5,-537 152.5,-531 152.5,-531 152.5,-528 155.5,-525 158.5,-525 158.5,-525 201.5,-525 201.5,-525 204.5,-525 207.5,-528 207.5,-531 207.5,-531 207.5,-537 207.5,-537 207.5,-540 204.5,-543 201.5,-543"/>
<text text-anchor="middle" x="180" y="-531.8" font-family="Helvetica,sans-Serif" font-size="9.00">app.po.ts</text>
</a>
</g>
</g>
<!-- apps/www&#45;e2e/src/integration/app.spec.ts&#45;&gt;apps/www&#45;e2e/src/support/app.po.ts -->
<g id="edge1" class="edge">
<title>apps/www&#45;e2e/src/integration/app.spec.ts&#45;&gt;apps/www&#45;e2e/src/support/app.po.ts</title>
<path fill="none" stroke="#000000" stroke-width="2" stroke-opacity="0.200000" d="M109.59,-534C109.59,-534 146.47,-534 146.47,-534"/>
<polygon fill="#000000" fill-opacity="0.200000" stroke="#000000" stroke-width="2" stroke-opacity="0.200000" points="146.47,-536.1 152.47,-534 146.47,-531.9 146.47,-536.1"/>
</g>
<!-- apps/www&#45;e2e/src/support/commands.ts -->
<g id="node4" class="node">
<title>apps/www&#45;e2e/src/support/commands.ts</title>
<g id="a_node4"><a xlink:href="apps/www-e2e/src/support/commands.ts" xlink:title="commands.ts">
<path fill="#ddfeff" stroke="black" d="M302.5,-513C302.5,-513 240.5,-513 240.5,-513 237.5,-513 234.5,-510 234.5,-507 234.5,-507 234.5,-501 234.5,-501 234.5,-498 237.5,-495 240.5,-495 240.5,-495 302.5,-495 302.5,-495 305.5,-495 308.5,-498 308.5,-501 308.5,-501 308.5,-507 308.5,-507 308.5,-510 305.5,-513 302.5,-513"/>
<text text-anchor="middle" x="271.5" y="-501.8" font-family="Helvetica,sans-Serif" font-size="9.00">commands.ts</text>
</a>
</g>
</g>
<!-- apps/www&#45;e2e/src/support/index.ts -->
<g id="node5" class="node">
<title>apps/www&#45;e2e/src/support/index.ts</title>
<g id="a_node5"><a xlink:href="apps/www-e2e/src/support/index.ts" xlink:title="index.ts">
<path fill="#ddfeff" stroke="black" d="M201,-513C201,-513 159,-513 159,-513 156,-513 153,-510 153,-507 153,-507 153,-501 153,-501 153,-498 156,-495 159,-495 159,-495 201,-495 201,-495 204,-495 207,-498 207,-501 207,-501 207,-507 207,-507 207,-510 204,-513 201,-513"/>
<text text-anchor="middle" x="180" y="-501.8" font-family="Helvetica,sans-Serif" font-size="9.00">index.ts</text>
</a>
</g>
</g>
<!-- apps/www&#45;e2e/src/support/index.ts&#45;&gt;apps/www&#45;e2e/src/support/commands.ts -->
<g id="edge2" class="edge">
<title>apps/www&#45;e2e/src/support/index.ts&#45;&gt;apps/www&#45;e2e/src/support/commands.ts</title>
<path fill="none" stroke="#000000" stroke-width="2" stroke-opacity="0.200000" d="M207.45,-504C207.45,-504 228.25,-504 228.25,-504"/>
<polygon fill="#000000" fill-opacity="0.200000" stroke="#000000" stroke-width="2" stroke-opacity="0.200000" points="228.25,-506.1 234.25,-504 228.25,-501.9 228.25,-506.1"/>
</g>
<!-- apps/www/gatsby&#45;browser.js -->
<g id="node6" class="node">
<title>apps/www/gatsby&#45;browser.js</title>
<g id="a_node6"><a xlink:href="apps/www/gatsby-browser.js" xlink:title="no&#45;orphans">
<path fill="#ccffcc" stroke="orange" d="M116,-313C116,-313 38,-313 38,-313 35,-313 32,-310 32,-307 32,-307 32,-301 32,-301 32,-298 35,-295 38,-295 38,-295 116,-295 116,-295 119,-295 122,-298 122,-301 122,-301 122,-307 122,-307 122,-310 119,-313 116,-313"/>
<text text-anchor="middle" x="77" y="-301.8" font-family="Helvetica,sans-Serif" font-size="9.00" fill="orange">gatsby&#45;browser.js</text>
</a>
</g>
</g>
<!-- apps/www/gatsby&#45;config.js -->
<g id="node7" class="node">
<title>apps/www/gatsby&#45;config.js</title>
<g id="a_node7"><a xlink:href="apps/www/gatsby-config.js" xlink:title="no&#45;orphans">
<path fill="#ccffcc" stroke="orange" d="M111.5,-283C111.5,-283 42.5,-283 42.5,-283 39.5,-283 36.5,-280 36.5,-277 36.5,-277 36.5,-271 36.5,-271 36.5,-268 39.5,-265 42.5,-265 42.5,-265 111.5,-265 111.5,-265 114.5,-265 117.5,-268 117.5,-271 117.5,-271 117.5,-277 117.5,-277 117.5,-280 114.5,-283 111.5,-283"/>
<text text-anchor="middle" x="77" y="-271.8" font-family="Helvetica,sans-Serif" font-size="9.00" fill="orange">gatsby&#45;config.js</text>
</a>
</g>
</g>
<!-- apps/www/gatsby&#45;node.js -->
<g id="node8" class="node">
<title>apps/www/gatsby&#45;node.js</title>
<g id="a_node8"><a xlink:href="apps/www/gatsby-node.js" xlink:title="no&#45;orphans">
<path fill="#ccffcc" stroke="orange" d="M109.5,-253C109.5,-253 44.5,-253 44.5,-253 41.5,-253 38.5,-250 38.5,-247 38.5,-247 38.5,-241 38.5,-241 38.5,-238 41.5,-235 44.5,-235 44.5,-235 109.5,-235 109.5,-235 112.5,-235 115.5,-238 115.5,-241 115.5,-241 115.5,-247 115.5,-247 115.5,-250 112.5,-253 109.5,-253"/>
<text text-anchor="middle" x="77" y="-241.8" font-family="Helvetica,sans-Serif" font-size="9.00" fill="orange">gatsby&#45;node.js</text>
</a>
</g>
</g>
<!-- apps/www/gatsby&#45;ssr.js -->
<g id="node9" class="node">
<title>apps/www/gatsby&#45;ssr.js</title>
<g id="a_node9"><a xlink:href="apps/www/gatsby-ssr.js" xlink:title="no&#45;orphans">
<path fill="#ccffcc" stroke="orange" d="M106,-223C106,-223 48,-223 48,-223 45,-223 42,-220 42,-217 42,-217 42,-211 42,-211 42,-208 45,-205 48,-205 48,-205 106,-205 106,-205 109,-205 112,-208 112,-211 112,-211 112,-217 112,-217 112,-220 109,-223 106,-223"/>
<text text-anchor="middle" x="77" y="-211.8" font-family="Helvetica,sans-Serif" font-size="9.00" fill="orange">gatsby&#45;ssr.js</text>
</a>
</g>
</g>
<!-- apps/www/jest.config.js -->
<g id="node10" class="node">
<title>apps/www/jest.config.js</title>
<g id="a_node10"><a xlink:href="apps/www/jest.config.js" xlink:title="no&#45;orphans">
<path fill="#ccffcc" stroke="orange" d="M105,-193C105,-193 49,-193 49,-193 46,-193 43,-190 43,-187 43,-187 43,-181 43,-181 43,-178 46,-175 49,-175 49,-175 105,-175 105,-175 108,-175 111,-178 111,-181 111,-181 111,-187 111,-187 111,-190 108,-193 105,-193"/>
<text text-anchor="middle" x="77" y="-181.8" font-family="Helvetica,sans-Serif" font-size="9.00" fill="orange">jest.config.js</text>
</a>
</g>
</g>
<!-- apps/www/src/pages/404.js -->
<g id="node11" class="node">
<title>apps/www/src/pages/404.js</title>
<g id="a_node11"><a xlink:href="apps/www/src/pages/404.js" xlink:title="404.js">
<path fill="#ffffcc" stroke="black" d="M98,-385C98,-385 56,-385 56,-385 53,-385 50,-382 50,-379 50,-379 50,-373 50,-373 50,-370 53,-367 56,-367 56,-367 98,-367 98,-367 101,-367 104,-370 104,-373 104,-373 104,-379 104,-379 104,-382 101,-385 98,-385"/>
<text text-anchor="middle" x="77" y="-373.8" font-family="Helvetica,sans-Serif" font-size="9.00">404.js</text>
</a>
</g>
</g>
<!-- node_modules/react -->
<g id="node12" class="node">
<title>node_modules/react</title>
<g id="a_node12"><a xlink:href="node_modules/react" xlink:title="react">
<polygon fill="#c40b0a" fill-opacity="0.101961" stroke="black" points="298.5,-95 246.5,-95 244.5,-93 244.5,-77 296.5,-77 298.5,-79 298.5,-95"/>
<polyline fill="none" stroke="black" points="296.5,-93 244.5,-93 "/>
<polyline fill="none" stroke="black" points="296.5,-93 296.5,-77 "/>
<polyline fill="none" stroke="black" points="296.5,-93 298.5,-95 "/>
<text text-anchor="middle" x="271.5" y="-83.8" font-family="Helvetica,sans-Serif" font-size="9.00" fill="#c40b0a">react</text>
</a>
</g>
</g>
<!-- apps/www/src/pages/404.js&#45;&gt;node_modules/react -->
<g id="edge3" class="edge">
<title>apps/www/src/pages/404.js&#45;&gt;node_modules/react</title>
<g id="a_edge3"><a xlink:title="no&#45;non&#45;package&#45;json">
<path fill="none" stroke="#4e7f9d" d="M104.02,-373C122.06,-373 142.5,-373 142.5,-373 142.5,-373 142.5,-86 142.5,-86 142.5,-86 238.46,-86 238.46,-86"/>
<polygon fill="#4e7f9d" stroke="#4e7f9d" points="238.46,-88.1 244.46,-86 238.46,-83.9 238.46,-88.1"/>
</a>
</g>
<text text-anchor="middle" x="187" y="-193.56" font-family="Helvetica,sans-Serif" font-size="9.00" fill="#4e7f9d">no&#45;non&#45;package&#45;json</text>
</g>
<!-- apps/www/src/pages/index.spec.tsx -->
<g id="node13" class="node">
<title>apps/www/src/pages/index.spec.tsx</title>
<g id="a_node13"><a xlink:href="apps/www/src/pages/index.spec.tsx" xlink:title="index.spec.tsx">
<path fill="#bbfeff" stroke="black" d="M108,-355C108,-355 46,-355 46,-355 43,-355 40,-352 40,-349 40,-349 40,-343 40,-343 40,-340 43,-337 46,-337 46,-337 108,-337 108,-337 111,-337 114,-340 114,-343 114,-343 114,-349 114,-349 114,-352 111,-355 108,-355"/>
<text text-anchor="middle" x="77" y="-343.8" font-family="Helvetica,sans-Serif" font-size="9.00">index.spec.tsx</text>
</a>
</g>
</g>
<!-- apps/www/src/pages/index.spec.tsx&#45;&gt;node_modules/react -->
<g id="edge6" class="edge">
<title>apps/www/src/pages/index.spec.tsx&#45;&gt;node_modules/react</title>
<g id="a_edge6"><a xlink:title="no&#45;non&#45;package&#45;json">
<path fill="none" stroke="#4e7f9d" d="M114.19,-346C127.15,-346 138.5,-346 138.5,-346 138.5,-346 138.5,-81.5 138.5,-81.5 138.5,-81.5 238.26,-81.5 238.26,-81.5"/>
<polygon fill="#4e7f9d" stroke="#4e7f9d" points="238.26,-83.6 244.26,-81.5 238.26,-79.4 238.26,-83.6"/>
</a>
</g>
<text text-anchor="middle" x="183" y="-168.82" font-family="Helvetica,sans-Serif" font-size="9.00" fill="#4e7f9d">no&#45;non&#45;package&#45;json</text>
</g>
<!-- apps/www/src/pages/index.tsx -->
<g id="node14" class="node">
<title>apps/www/src/pages/index.tsx</title>
<g id="a_node14"><a xlink:href="apps/www/src/pages/index.tsx" xlink:title="index.tsx">
<path fill="#bbfeff" stroke="black" d="M201,-355C201,-355 159,-355 159,-355 156,-355 153,-352 153,-349 153,-349 153,-343 153,-343 153,-340 156,-337 159,-337 159,-337 201,-337 201,-337 204,-337 207,-340 207,-343 207,-343 207,-349 207,-349 207,-352 204,-355 201,-355"/>
<text text-anchor="middle" x="180" y="-343.8" font-family="Helvetica,sans-Serif" font-size="9.00">index.tsx</text>
</a>
</g>
</g>
<!-- apps/www/src/pages/index.spec.tsx&#45;&gt;apps/www/src/pages/index.tsx -->
<g id="edge4" class="edge">
<title>apps/www/src/pages/index.spec.tsx&#45;&gt;apps/www/src/pages/index.tsx</title>
<path fill="none" stroke="#000000" stroke-width="2" stroke-opacity="0.200000" d="M114.19,-350.5C114.19,-350.5 146.89,-350.5 146.89,-350.5"/>
<polygon fill="#000000" fill-opacity="0.200000" stroke="#000000" stroke-width="2" stroke-opacity="0.200000" points="146.89,-352.6 152.89,-350.5 146.89,-348.4 146.89,-352.6"/>
</g>
<!-- node_modules/@testing&#45;library -->
<g id="node15" class="node">
<title>node_modules/@testing&#45;library</title>
<g id="a_node15"><a xlink:href="node_modules/@testing-library" xlink:title="@testing&#45;library">
<polygon fill="#c40b0a" fill-opacity="0.101961" stroke="black" points="312,-65 233,-65 231,-63 231,-47 310,-47 312,-49 312,-65"/>
<polyline fill="none" stroke="black" points="310,-63 231,-63 "/>
<polyline fill="none" stroke="black" points="310,-63 310,-47 "/>
<polyline fill="none" stroke="black" points="310,-63 312,-65 "/>
<text text-anchor="middle" x="271.5" y="-53.8" font-family="Helvetica,sans-Serif" font-size="9.00" fill="#c40b0a">@testing&#45;library</text>
</a>
</g>
</g>
<!-- apps/www/src/pages/index.spec.tsx&#45;&gt;node_modules/@testing&#45;library -->
<g id="edge5" class="edge">
<title>apps/www/src/pages/index.spec.tsx&#45;&gt;node_modules/@testing&#45;library</title>
<g id="a_edge5"><a xlink:title="no&#45;non&#45;package&#45;json">
<path fill="none" stroke="#4e7f9d" d="M114.05,-341.5C125.66,-341.5 135.5,-341.5 135.5,-341.5 135.5,-341.5 135.5,-58 135.5,-58 135.5,-58 224.7,-58 224.7,-58"/>
<polygon fill="#4e7f9d" stroke="#4e7f9d" points="224.7,-60.1 230.7,-58 224.7,-55.9 224.7,-60.1"/>
</a>
</g>
<text text-anchor="middle" x="91" y="-158.68" font-family="Helvetica,sans-Serif" font-size="9.00" fill="#4e7f9d">no&#45;non&#45;package&#45;json</text>
</g>
<!-- apps/www/src/pages/index.tsx&#45;&gt;node_modules/react -->
<g id="edge10" class="edge">
<title>apps/www/src/pages/index.tsx&#45;&gt;node_modules/react</title>
<g id="a_edge10"><a xlink:title="no&#45;non&#45;package&#45;json">
<path fill="none" stroke="#4e7f9d" d="M171.5,-336.91C171.5,-291.39 171.5,-90.5 171.5,-90.5 171.5,-90.5 238.44,-90.5 238.44,-90.5"/>
<polygon fill="#4e7f9d" stroke="#4e7f9d" points="238.44,-92.6 244.44,-90.5 238.44,-88.4 238.44,-92.6"/>
</a>
</g>
<text text-anchor="middle" x="216" y="-183.03" font-family="Helvetica,sans-Serif" font-size="9.00" fill="#4e7f9d">no&#45;non&#45;package&#45;json</text>
</g>
<!-- apps/www/src/pages/logo.svg -->
<g id="node16" class="node">
<title>apps/www/src/pages/logo.svg</title>
<g id="a_node16"><a xlink:href="apps/www/src/pages/logo.svg" xlink:title="logo.svg">
<path fill="#ffffcc" stroke="black" d="M292.5,-355C292.5,-355 250.5,-355 250.5,-355 247.5,-355 244.5,-352 244.5,-349 244.5,-349 244.5,-343 244.5,-343 244.5,-340 247.5,-337 250.5,-337 250.5,-337 292.5,-337 292.5,-337 295.5,-337 298.5,-340 298.5,-343 298.5,-343 298.5,-349 298.5,-349 298.5,-352 295.5,-355 292.5,-355"/>
<text text-anchor="middle" x="271.5" y="-343.8" font-family="Helvetica,sans-Serif" font-size="9.00">logo.svg</text>
</a>
</g>
</g>
<!-- apps/www/src/pages/index.tsx&#45;&gt;apps/www/src/pages/logo.svg -->
<g id="edge7" class="edge">
<title>apps/www/src/pages/index.tsx&#45;&gt;apps/www/src/pages/logo.svg</title>
<path fill="none" stroke="#000000" stroke-width="2" stroke-opacity="0.200000" d="M207.45,-346C207.45,-346 238.38,-346 238.38,-346"/>
<polygon fill="#000000" fill-opacity="0.200000" stroke="#000000" stroke-width="2" stroke-opacity="0.200000" points="238.38,-348.1 244.38,-346 238.38,-343.9 238.38,-348.1"/>
</g>
<!-- apps/www/src/pages/star.svg -->
<g id="node17" class="node">
<title>apps/www/src/pages/star.svg</title>
<g id="a_node17"><a xlink:href="apps/www/src/pages/star.svg" xlink:title="star.svg">
<path fill="#ffffcc" stroke="black" d="M292.5,-385C292.5,-385 250.5,-385 250.5,-385 247.5,-385 244.5,-382 244.5,-379 244.5,-379 244.5,-373 244.5,-373 244.5,-370 247.5,-367 250.5,-367 250.5,-367 292.5,-367 292.5,-367 295.5,-367 298.5,-370 298.5,-373 298.5,-373 298.5,-379 298.5,-379 298.5,-382 295.5,-385 292.5,-385"/>
<text text-anchor="middle" x="271.5" y="-373.8" font-family="Helvetica,sans-Serif" font-size="9.00">star.svg</text>
</a>
</g>
</g>
<!-- apps/www/src/pages/index.tsx&#45;&gt;apps/www/src/pages/star.svg -->
<g id="edge8" class="edge">
<title>apps/www/src/pages/index.tsx&#45;&gt;apps/www/src/pages/star.svg</title>
<path fill="none" stroke="#000000" stroke-width="2" stroke-opacity="0.200000" d="M180.5,-355.02C180.5,-364.79 180.5,-379 180.5,-379 180.5,-379 238.2,-379 238.2,-379"/>
<polygon fill="#000000" fill-opacity="0.200000" stroke="#000000" stroke-width="2" stroke-opacity="0.200000" points="238.2,-381.1 244.2,-379 238.2,-376.9 238.2,-381.1"/>
</g>
<!-- node_modules/@emotion -->
<g id="node18" class="node">
<title>node_modules/@emotion</title>
<g id="a_node18"><a xlink:href="node_modules/@emotion" xlink:title="@emotion">
<polygon fill="#c40b0a" fill-opacity="0.101961" stroke="black" points="301,-125 244,-125 242,-123 242,-107 299,-107 301,-109 301,-125"/>
<polyline fill="none" stroke="black" points="299,-123 242,-123 "/>
<polyline fill="none" stroke="black" points="299,-123 299,-107 "/>
<polyline fill="none" stroke="black" points="299,-123 301,-125 "/>
<text text-anchor="middle" x="271.5" y="-113.8" font-family="Helvetica,sans-Serif" font-size="9.00" fill="#c40b0a">@emotion</text>
</a>
</g>
</g>
<!-- apps/www/src/pages/index.tsx&#45;&gt;node_modules/@emotion -->
<g id="edge9" class="edge">
<title>apps/www/src/pages/index.tsx&#45;&gt;node_modules/@emotion</title>
<g id="a_edge9"><a xlink:title="no&#45;non&#45;package&#45;json">
<path fill="none" stroke="#4e7f9d" d="M189.5,-336.98C189.5,-294.46 189.5,-116 189.5,-116 189.5,-116 235.9,-116 235.9,-116"/>
<polygon fill="#4e7f9d" stroke="#4e7f9d" points="235.9,-118.1 241.9,-116 235.9,-113.9 235.9,-118.1"/>
</a>
</g>
<text text-anchor="middle" x="234" y="-206.09" font-family="Helvetica,sans-Serif" font-size="9.00" fill="#4e7f9d">no&#45;non&#45;package&#45;json</text>
</g>
<!-- jest.config.js -->
<g id="node19" class="node">
<title>jest.config.js</title>
<g id="a_node19"><a xlink:href="jest.config.js" xlink:title="jest.config.js">
<path fill="#ffffcc" stroke="black" d="M208,-51C208,-51 152,-51 152,-51 149,-51 146,-48 146,-45 146,-45 146,-39 146,-39 146,-36 149,-33 152,-33 152,-33 208,-33 208,-33 211,-33 214,-36 214,-39 214,-39 214,-45 214,-45 214,-48 211,-51 208,-51"/>
<text text-anchor="middle" x="180" y="-39.8" font-family="Helvetica,sans-Serif" font-size="9.00">jest.config.js</text>
</a>
</g>
</g>
<!-- node_modules/@nrwl -->
<g id="node20" class="node">
<title>node_modules/@nrwl</title>
<g id="a_node20"><a xlink:href="node_modules/@nrwl" xlink:title="@nrwl">
<polygon fill="#c40b0a" fill-opacity="0.101961" stroke="black" points="298.5,-35 246.5,-35 244.5,-33 244.5,-17 296.5,-17 298.5,-19 298.5,-35"/>
<polyline fill="none" stroke="black" points="296.5,-33 244.5,-33 "/>
<polyline fill="none" stroke="black" points="296.5,-33 296.5,-17 "/>
<polyline fill="none" stroke="black" points="296.5,-33 298.5,-35 "/>
<text text-anchor="middle" x="271.5" y="-23.8" font-family="Helvetica,sans-Serif" font-size="9.00" fill="#c40b0a">@nrwl</text>
</a>
</g>
</g>
<!-- jest.config.js&#45;&gt;node_modules/@nrwl -->
<g id="edge11" class="edge">
<title>jest.config.js&#45;&gt;node_modules/@nrwl</title>
<g id="a_edge11"><a xlink:title="not&#45;to&#45;dev&#45;dep">
<path fill="none" stroke="#4e7f9d" d="M214.07,-41C240.09,-41 271.5,-41 271.5,-41 271.5,-41 271.5,-40.42 271.5,-40.42"/>
<polygon fill="#4e7f9d" stroke="#4e7f9d" points="273.6,-41.24 271.5,-35.24 269.4,-41.24 273.6,-41.24"/>
</a>
</g>
<text text-anchor="middle" x="273.07" y="-38.8" font-family="Helvetica,sans-Serif" font-size="9.00" fill="#4e7f9d">not&#45;to&#45;dev&#45;dep</text>
</g>
<!-- jest.preset.js -->
<g id="node21" class="node">
<title>jest.preset.js</title>
<g id="a_node21"><a xlink:href="jest.preset.js" xlink:title="jest.preset.js">
<path fill="#ffffcc" stroke="black" d="M209,-21C209,-21 151,-21 151,-21 148,-21 145,-18 145,-15 145,-15 145,-9 145,-9 145,-6 148,-3 151,-3 151,-3 209,-3 209,-3 212,-3 215,-6 215,-9 215,-9 215,-15 215,-15 215,-18 212,-21 209,-21"/>
<text text-anchor="middle" x="180" y="-9.8" font-family="Helvetica,sans-Serif" font-size="9.00">jest.preset.js</text>
</a>
</g>
</g>
<!-- jest.preset.js&#45;&gt;node_modules/@nrwl -->
<g id="edge12" class="edge">
<title>jest.preset.js&#45;&gt;node_modules/@nrwl</title>
<g id="a_edge12"><a xlink:title="not&#45;to&#45;dev&#45;dep">
<path fill="none" stroke="#4e7f9d" d="M215.11,-10C240.92,-10 271.5,-10 271.5,-10 271.5,-10 271.5,-10.88 271.5,-10.88"/>
<polygon fill="#4e7f9d" stroke="#4e7f9d" points="269.4,-10.88 271.5,-16.88 273.6,-10.88 269.4,-10.88"/>
</a>
</g>
<text text-anchor="middle" x="273.75" y="-2.8" font-family="Helvetica,sans-Serif" font-size="9.00" fill="#4e7f9d">not&#45;to&#45;dev&#45;dep</text>
</g>
</g>
</svg>
